<?xml version="1.0" encoding="utf-8"?>
<!-- Generator: Adobe Illustrator 19.0.0, SVG Export Plug-In . SVG Version: 6.00 Build 0)  -->
<svg version="1.1" xmlns="http://www.w3.org/2000/svg" xmlns:xlink="http://www.w3.org/1999/xlink" x="0px" y="0px"
	 viewBox="0 0 595.3 549" style="enable-background:new 0 0 595.3 549;" xml:space="preserve">
<style type="text/css">
	.st0{fill:#FFFFFF;}
	.st1{fill:none;stroke:#000000;stroke-width:7.9063;stroke-linejoin:round;stroke-miterlimit:10;}
	.st2{fill:none;}
	.st3{fill:#E04A40;stroke:#000000;stroke-width:7.9063;stroke-linejoin:round;stroke-miterlimit:10;}
	.st4{fill:#E04A40;}
</style>
<g id="Warstwa_1">
	<polyline id="XMLID_63_" class="st0" points="313.5,28 345.8,132 426.6,132 378.2,244.9 287.1,244.9 241.2,312.7 154.6,368.4 
		78.5,312.7 230.6,132 313.5,28 378.2,44.6 516.8,294.6 447.5,368.4 367.7,327.7 241.2,312.7 163.1,212.2 241.2,312.7 378.2,244.9 
		345.8,132 287.1,244.9 378.2,244.9 447.5,368.4 367.7,327.7 241.2,312.7 367.7,327.7 447.5,368.4 378.2,244.9 241.2,312.7 	"/>
	<polyline id="XMLID_33_" class="st1" points="313.5,28 345.8,132 426.6,132 378.2,244.9 287.1,244.9 241.2,312.7 154.6,368.4 
		78.5,312.7 230.6,132 313.5,28 378.2,44.6 516.8,294.6 447.5,368.4 367.7,327.7 241.2,312.7 163.1,212.2 241.2,312.7 378.2,244.9 
		345.8,132 287.1,244.9 378.2,244.9 447.5,368.4 367.7,327.7 241.2,312.7 367.7,327.7 447.5,368.4 378.2,244.9 241.2,312.7 	"/>
	<g id="XMLID_4_">
		<rect id="XMLID_108_" x="0" y="405.1" class="st2" width="595.3" height="184.9"/>
		<path id="XMLID_34_" d="M53.4,454.6l-2.5-12.2H39.4l-2.5,12.2h-6.3l10.1-46.1h9l9.9,46.1H53.4z M40.5,436.9h9.2l-4.6-22.4
			L40.5,436.9z"/>
		<path id="XMLID_66_" d="M64.8,408.5h6.5v40.6h13.5v5.5H64.8V408.5z"/>
		<path id="XMLID_68_" d="M89.3,408.5h21v5.6H95.7v14.3h12.7v5.6H95.7v14.9h14.6v5.6h-21V408.5z"/>
		<path id="XMLID_70_" d="M116.8,408.5h6.4v46.1h-6.4V408.5z M134.6,408.5h6.9l-9.3,22.8l9.9,23.3H135l-9.6-23.2L134.6,408.5z"/>
		<path id="XMLID_73_" d="M144.8,418.3c0-3.2,1.1-5.7,3.2-7.5c2.1-1.8,5.1-2.7,9-2.7c3.9,0,7.1,0.4,9.5,1.2v6.1
			c-2.4-1-5.4-1.4-8.9-1.4c-4.2,0-6.3,1.6-6.3,4.7v2.7c0,1.5,0.3,2.6,0.9,3.4c0.6,0.8,1.6,1.7,3,2.5l7.9,4.4c3.7,2,5.5,5,5.5,9v3.8
			c0,3.3-1.2,5.9-3.5,7.7s-5.6,2.7-9.8,2.7c-4.2,0-7.6-0.5-10.1-1.4v-6.1c3,1.1,6.1,1.6,9.5,1.6c4.9,0,7.4-1.7,7.4-5v-2.3
			c0-1.4-0.2-2.4-0.7-3.2c-0.5-0.7-1.4-1.5-2.8-2.2l-7.7-4.2c-4-2.2-6.1-5.4-6.1-9.7V418.3z"/>
		<path id="XMLID_75_" d="M194,454.6l-2.5-12.2h-11.4l-2.5,12.2h-6.3l10.1-46.1h9l9.9,46.1H194z M181.2,436.9h9.2l-4.6-22.4
			L181.2,436.9z"/>
		<path id="XMLID_78_" d="M225.3,408.5h6.3v46.1h-6.8c-7.1-18.2-11.8-30.2-13.9-36.2c0,0.5,0.1,1.5,0.3,3.1
			c0.4,3.9,0.5,8.3,0.5,13.1v19.9h-6.3v-46.1h6.9c6.3,16,10.1,25.8,11.5,29.6c1.4,3.8,2.1,6,2.3,6.5c0-0.4-0.1-2.4-0.4-6
			c-0.3-3.6-0.4-7.1-0.4-10.4V408.5z"/>
		<path id="XMLID_80_" d="M240,408.5h13.3c3.6,0,6.4,0.9,8.3,2.7c1.9,1.8,2.9,4.4,2.9,7.6V444c0,3.3-0.9,5.9-2.7,7.8
			c-1.8,1.9-4.5,2.8-8.2,2.8H240V408.5z M258.1,419.1c0-3.4-1.8-5.2-5.4-5.2h-6.3v35.2h6.3c3.6,0,5.4-1.8,5.4-5.4V419.1z"/>
		<path id="XMLID_83_" d="M272.2,408.5h21v5.6h-14.6v14.3h12.7v5.6h-12.7v14.9h14.6v5.6h-21V408.5z"/>
		<path id="XMLID_85_" d="M306.1,436.7v18h-6.4v-46.1h12.4c3.6,0,6.4,0.9,8.3,2.7c1.9,1.8,2.9,4.3,2.9,7.5v7.3c0,5-1.9,8.3-5.8,9.7
			l7.3,18.8h-7.1l-6.6-18H306.1z M306.1,414.1v17.2h5.4c1.9,0,3.3-0.4,4.1-1.3c0.8-0.9,1.3-2.2,1.3-3.9v-6.9c0-3.4-1.8-5.1-5.4-5.1
			H306.1z"/>
		<path id="XMLID_88_" d="M344,408.5h6.4v46.1H344V408.5z M361.9,408.5h6.9l-9.3,22.8l9.9,23.3h-7.1l-9.6-23.2L361.9,408.5z"/>
		<path id="XMLID_91_" d="M393.9,454.6l-2.5-12.2h-11.4l-2.5,12.2h-6.3l10.1-46.1h9l9.9,46.1H393.9z M381,436.9h9.2l-4.6-22.4
			L381,436.9z"/>
		<path id="XMLID_94_" d="M439.1,408.5v46.1H433v-21.8c0-4.7,0.2-9.2,0.7-13.7l-8.6,23.4h-5.9l-8.6-23.4c0.5,4.2,0.7,8.8,0.7,13.6
			v21.9h-6.1v-46.1h7.1l9.8,27.3l9.8-27.3H439.1z"/>
		<path id="XMLID_96_" d="M447.6,408.5h6.5v46.1h-6.5V408.5z"/>
		<path id="XMLID_98_" d="M482.3,408.5h6.3v46.1h-6.8c-7.1-18.2-11.8-30.2-13.9-36.2c0,0.5,0.1,1.5,0.3,3.1
			c0.4,3.9,0.5,8.3,0.5,13.1v19.9h-6.3v-46.1h6.9c6.3,16,10.1,25.8,11.5,29.6c1.4,3.8,2.1,6,2.3,6.5c0-0.4-0.1-2.4-0.4-6
			c-0.2-3.6-0.4-7.1-0.4-10.4V408.5z M476,398.3h5.4l-4.4,7.4h-3.8L476,398.3z"/>
		<path id="XMLID_101_" d="M494.6,418.3c0-3.2,1.1-5.7,3.2-7.5c2.1-1.8,5.1-2.7,9-2.7c3.9,0,7.1,0.4,9.5,1.2v6.1
			c-2.4-1-5.4-1.4-8.9-1.4c-4.2,0-6.3,1.6-6.3,4.7v2.7c0,1.5,0.3,2.6,0.9,3.4c0.6,0.8,1.6,1.7,3,2.5l7.9,4.4c3.7,2,5.5,5,5.5,9v3.8
			c0,3.3-1.2,5.9-3.5,7.7c-2.3,1.8-5.6,2.7-9.8,2.7c-4.2,0-7.6-0.5-10.1-1.4v-6.1c3,1.1,6.1,1.6,9.5,1.6c4.9,0,7.4-1.7,7.4-5v-2.3
			c0-1.4-0.3-2.4-0.7-3.2c-0.5-0.7-1.4-1.5-2.8-2.2l-7.7-4.2c-4-2.2-6.1-5.4-6.1-9.7V418.3z"/>
		<path id="XMLID_103_" d="M524.4,408.5h6.4v46.1h-6.4V408.5z M542.3,408.5h6.9l-9.3,22.8l9.9,23.3h-7.1l-9.6-23.2L542.3,408.5z"/>
		<path id="XMLID_106_" d="M554.9,408.5h6.5v46.1h-6.5V408.5z"/>
	</g>
	<polygon id="XMLID_30_" class="st3" points="287.1,244.9 345.8,132 378.2,244.9 	"/>
	<g id="XMLID_31_">
		<rect id="XMLID_62_" x="24" y="471.8" class="st2" width="595.3" height="93"/>
		<path id="XMLID_39_" class="st4" d="M35.8,519.8h-5.2v-48.1h11.2c3.8,0,6.8,0.9,8.8,2.7c2,1.8,3,4.4,3,7.6v12.6c0,3.3-1,5.9-3,7.7
			c-2,1.8-4.9,2.7-8.8,2.7h-6V519.8z M48.4,494.7v-12.6c0-1.9-0.6-3.3-1.7-4.4c-1.1-1-2.8-1.6-4.9-1.6h-6v24.4h6
			C46.2,500.6,48.4,498.6,48.4,494.7z"/>
		<path id="XMLID_42_" class="st4" d="M120.8,481v29.6c0,3.3-1,5.9-3.1,7.7c-2.1,1.8-5.2,2.7-9.4,2.7c-4.2,0-7.3-0.9-9.4-2.7
			c-2.1-1.8-3.2-4.4-3.2-7.7V481c0-3.3,1-5.9,3.1-7.7c2.1-1.8,5.2-2.7,9.4-2.7c4.2,0,7.3,0.9,9.4,2.7
			C119.7,475.1,120.8,477.7,120.8,481z M115.6,510.6V481c0-3.9-2.5-5.9-7.4-5.9c-4.9,0-7.4,2-7.4,5.9v29.6c0,3.9,2.5,5.9,7.4,5.9
			C113.1,516.5,115.6,514.5,115.6,510.6z"/>
		<path id="XMLID_45_" class="st4" d="M170.9,519.8h-5.2v-48.1h11.2c3.8,0,6.8,0.9,8.8,2.7c2,1.8,3,4.4,3,7.6v10.4
			c0,5-2.2,8.2-6.5,9.6l9.1,17.8h-5.7l-8.7-17h-6V519.8z M183.5,492.5v-10.4c0-1.9-0.6-3.3-1.7-4.4c-1.1-1-2.8-1.6-4.9-1.6h-6v22.2
			h6C181.3,498.4,183.5,496.4,183.5,492.5z"/>
		<path id="XMLID_48_" class="st4" d="M252.2,471.8v4.4h-9.6v43.7h-5.2v-43.7h-9.6v-4.4H252.2z"/>
		<path id="XMLID_50_" class="st4" d="M298.3,519.8h-5.2v-48.1h20.4v4.4h-15.2v17h12.2v4.4h-12.2V519.8z"/>
		<path id="XMLID_52_" class="st4" d="M379.2,481v29.6c0,3.3-1,5.9-3.1,7.7c-2.1,1.8-5.2,2.7-9.4,2.7c-4.2,0-7.3-0.9-9.4-2.7
			c-2.1-1.8-3.2-4.4-3.2-7.7V481c0-3.3,1-5.9,3.1-7.7s5.2-2.7,9.4-2.7c4.2,0,7.3,0.9,9.4,2.7S379.2,477.7,379.2,481z M374,510.6V481
			c0-3.9-2.5-5.9-7.4-5.9c-4.9,0-7.4,2-7.4,5.9v29.6c0,3.9,2.5,5.9,7.4,5.9C371.5,516.5,374,514.5,374,510.6z"/>
		<path id="XMLID_55_" class="st4" d="M424.1,519.8v-48.1h5.2v43.7h13.5v4.4H424.1z"/>
		<path id="XMLID_57_" class="st4" d="M493.4,515.4v4.4h-12.6v-4.4h3.7v-39.2h-3.7v-4.4h12.6v4.4h-3.7v39.2H493.4z"/>
		<path id="XMLID_59_" class="st4" d="M561.3,481v29.6c0,3.3-1,5.9-3.1,7.7c-2.1,1.8-5.2,2.7-9.4,2.7c-4.2,0-7.3-0.9-9.4-2.7
			c-2.1-1.8-3.2-4.4-3.2-7.7V481c0-3.3,1-5.9,3.1-7.7s5.2-2.7,9.4-2.7c4.2,0,7.3,0.9,9.4,2.7S561.3,477.7,561.3,481z M556.2,510.6
			V481c0-3.9-2.5-5.9-7.4-5.9c-4.9,0-7.4,2-7.4,5.9v29.6c0,3.9,2.5,5.9,7.4,5.9C553.7,516.5,556.2,514.5,556.2,510.6z"/>
	</g>
</g>
<g id="Warstwa_2">
	<g id="XMLID_15_">
	</g>
	<g id="XMLID_17_">
	</g>
	<g id="XMLID_109_">
	</g>
	<g id="XMLID_110_">
	</g>
	<g id="XMLID_111_">
	</g>
</g>
</svg>
